#!OML:ASF F:\VICON\USERDATA\INSTALL\rory3\rory3.ASF
:FULLY-SPECIFIED
:DEGREES
115
root 7.71139 17.8336 -3.86483 -9.43477 -47.4209 12.2024
lowerback 11.161 -0.201896 -7.88538
upperback 1.36172 -1.30112 -0.710792
thorax -4.67791 -0.520748 3.89157
lowerneck -21.5787 -3.79737 -10.202
upperneck 25.9769 -4.10403 7.19638
head 12.5926 -1.93627 3.77391
rclavicle 4.32357e-014 3.97569e-016
rhumerus -37.7718 -15.4552 -76.5756
rradius 32.7673
rwrist 8.85266
rhand -13.1936 8.79362
rfingers 7.12502
rthumb 12.9065 -20.7873
lclavicle 4.32357e-014 3.97569e-016
lhumerus -33.7462 4.24515 80.0264
lradius 42.4556
lwrist -4.89415
lhand -16.9293 25.5153
lfingers 7.12502
lthumb 9.30358 55.29
rfemur -32.7221 -1.05201 13.1388
rtibia 45.846
rfoot -8.35279 -1.64635
rtoes 6.87007
lfemur 11.9292 -3.15293 -34.2415
ltibia -1.59028e-014
lfoot -4.32205 -6.21397
ltoes 10.2683
116
root 7.62321 17.824 -3.80211 -8.9619 -47.2264 11.8297
lowerback 11.2908 -0.309072 -7.78096
upperback 1.21715 -1.43984 -0.572969
thorax -4.88486 -0.576344 4.00319
lowerneck -21.3853 -3.822 -10.3744
upperneck 25.8181 -4.12616 7.31339
head 12.5 -1.94906 3.84088
rclavicle -2.3059e-014 9.93923e-015
rhumerus -37.8983 -15.6476 -76.4184
rradius 32.6931
rwrist 9.13347
rhand -12.9176 8.79806
rfingers 7.12502
rthumb 13.1726 -20.7658
lclavicle -2.3059e-014 9.93923e-015
lhumerus -33.7387 4.25805 80.0516
lradius 42.6844
lwrist -4.80478
lhand -16.8675 25.4599
lfingers 7.12502
lthumb 9.36324 55.2319
rfemur -32.7832 -0.836289 13.3989
rtibia 42.9533
rfoot -7.70458 -1.7348
rtoes 6.79626
lfemur 12.1642 -3.43486 -34.0478
ltibia 1.90833e-014
lfoot -4.61205 -5.85461
ltoes 5.85628
117
root 7.52862 17.8165 -3.72882 -8.76551 -47.0504 11.755
lowerback 11.265 -0.387087 -7.81644
upperback 1.16437 -1.54344 -0.512575
thorax -4.91072 -0.623091 4.1022
lowerneck -21.2787 -3.83638 -10.529
upperneck 25.6725 -4.14976 7.49322
head 12.4314 -1.95087 3.92948
rclavicle 3.31473e-014 -2.50469e-014
rhumerus -37.9706 -15.4817 -76.4269
rradius 32.6889
rwrist 8.82589
rhand -12.6505 8.77987
rfingers 7.12502
rthumb 13.4301 -20.7672
lclavicle 3.31473e-014 -2.50469e-014
lhumerus -33.6186 4.23614 80.0788
lradius 42.7994
lwrist -4.69784
lhand -16.6728 25.3065
lfingers 7.12502
lthumb 9.55101 55.0701
rfemur -32.7183 -0.705566 13.4062
rtibia 40.1358
rfoot -7.50815 -1.64453
rtoes 7.1592
lfemur 12.4505 -3.65315 -34.0542
ltibia 1.43125e-014
lfoot -4.7722 -5.64921
ltoes 3.23286
118
root 7.42893 17.8087 -3.64756 -8.76005 -46.9455 11.8381
lowerback 11.1651 -0.42338 -7.92103
upperback 1.19675 -1.59423 -0.522306
thorax -4.81168 -0.651257 4.15509
lowerneck -21.3155 -3.8269 -10.5472
upperneck 25.5768 -4.15298 7.60667
head 12.4041 -1.93653 3.97375
rclavicle -7.74266e-014 -1.59028e-014
rhumerus -38.0146 -15.2928 -76.587
rradius 32.728
rwrist 8.49252
rhand -13.0629 8.71497
rfingers 7.12502
rthumb 13.0326 -20.8579
lclavicle -7.74266e-014 -1.59028e-014
lhumerus -33.4663 4.30502 80.0286
lradius 42.9461
lwrist -4.75812
lhand -16.7977 25.3416
lfingers 7.12502
lthumb 9.43051 55.1106
rfemur -32.5344 -0.644786 13.33
rtibia 37.4234
rfoot -7.86949 -1.61178
rtoes 6.03058
lfemur 12.8241 -3.76775 -34.1596
ltibia 9.54166e-015
lfoot -4.852 -5.53125
ltoes 3.67002
119
root 7.32746 17.7989 -3.5646 -8.81766 -46.8832 11.9208
lowerback 11.1873 -0.409926 -8.02645
upperback 1.19745 -1.59248 -0.536089
thorax -4.8212 -0.648212 4.20014
lowerneck -21.4079 -3.82315 -10.3841
upperneck 25.5727 -4.15945 7.49259
head 12.4147 -1.9358 3.90008
rclavicle 1.65985e-014 2.14687e-014
rhumerus -38.1908 -15.0006 -76.7871
rradius 32.9497
rwrist 8.0389
rhand -13.539 8.63085
rfingers 7.12502
rthumb 12.5736 -20.9708
lclavicle 1.65985e-014 2.14687e-014
lhumerus -33.3727 4.33743 79.9955
lradius 43.0797
lwrist -4.77718
lhand -17.1878 25.1945
lfingers 7.12502
lthumb 9.0541 54.9802
rfemur -32.2533 -0.510681 13.24
rtibia 34.7915
rfoot -8.58273 -1.63361
rtoes 4.63189
lfemur 13.2844 -3.82476 -34.2646
ltibia 7.95139e-015
lfoot -4.90882 -5.33913
ltoes 4.97163
120
root 7.22576 17.7941 -3.48276 -8.755 -46.7562 11.8712
lowerback 11.2671 -0.475335 -8.04408
upperback 1.13864 -1.68924 -0.498459
thorax -4.9138 -0.689231 4.26686
lowerneck -21.5708 -3.80944 -10.3128
upperneck 25.7255 -4.12259 7.38219
head 12.4997 -1.92634 3.85543
rclavicle 8.86083e-014 -9.54166e-015
rhumerus -38.4734 -14.1096 -77.1519
rradius 33.4122
rwrist 7.15944
rhand -13.4101 8.40145
rfingers 7.12502
rthumb 12.6978 -21.1925
lclavicle 8.86083e-014 -9.54166e-015
lhumerus -33.3392 4.20417 79.9811
lradius 43.1658
lwrist -4.50707
lhand -17.2005 25.249
lfingers 7.12502
lthumb 9.04183 55.0352
rfemur -31.9559 -0.342515 13.1896
rtibia 32.2731
rfoot -9.29195 -1.55499
rtoes 3.68339
lfemur 13.7377 -3.96251 -34.297
ltibia 5.08889e-014
lfoot -4.98123 -5.07954
ltoes 4.99338
121
root 7.1249 17.7948 -3.40394 -8.5874 -46.5662 11.7368
lowerback 11.2867 -0.597557 -8.01378
upperback 1.09409 -1.84598 -0.416571
thorax -4.94941 -0.762955 4.36047
lowerneck -21.709 -3.82967 -10.5061
upperneck 25.8529 -4.09955 7.46667
head 12.5832 -1.92416 3.92931
rclavicle -1.59028e-014 2.0276e-014
rhumerus -38.6481 -13.449 -77.3523
rradius 33.6593
rwrist 6.65885
rhand -13.185 8.31641
rfingers 7.12502
rthumb 12.9148 -21.264
lclavicle -1.59028e-014 2.0276e-014
lhumerus -33.3044 4.00315 80.0483
lradius 43.2421
lwrist -4.17911
lhand -16.935 25.7439
lfingers 7.12502
lthumb 9.29809 55.5188
rfemur -31.7161 -0.177872 13.1729
rtibia 29.9675
rfoot -9.93066 -1.36757
rtoes 3.95627
lfemur 14.1428 -4.18013 -34.2765
ltibia -1.27222e-014
lfoot -5.09388 -4.86577
ltoes 3.6991
122
root 7.02134 17.7958 -3.32197 -8.45563 -46.4255 11.5817
lowerback 11.2317 -0.671892 -7.90851
upperback 1.13101 -1.92275 -0.38992
thorax -4.87166 -0.806966 4.33814
lowerneck -21.8309 -3.8611 -10.6268
upperneck 25.8979 -4.13299 7.60951
head 12.6361 -1.93061 4.00183
rclavicle 4.76586e-014 -3.22031e-014
rhumerus -38.6671 -13.5158 -77.3693
rradius 33.5831
rwrist 6.67021
rhand -13.1252 8.22363
rfingers 7.12502
rthumb 12.9725 -21.3531
lclavicle 4.76586e-014 -3.22031e-014
lhumerus -33.2262 3.95008 80.0706
lradius 43.316
lwrist -4.04312
lhand -16.9643 25.8844
lfingers 7.12502
lthumb 9.26981 55.6607
rfemur -31.4096 0.0395725 13.16
rtibia 27.9097
rfoot -10.3691 -1.06587
rtoes 3.70132
lfemur 14.6317 -4.33946 -34.2026
ltibia 1.59028e-014
lfoot -5.15647 -4.81267
ltoes 3.42688
123
root 6.91437 17.7936 -3.23995 -8.54144 -46.3366 11.674
lowerback 11.2105 -0.696044 -7.96281
upperback 1.14539 -1.9626 -0.45071
thorax -4.83985 -0.828049 4.30915
lowerneck -21.7961 -3.86124 -10.5734
upperneck 25.7955 -4.16306 7.65166
head 12.5909 -1.93166 4.00097
rclavicle 4.44781e-014 -8.74653e-015
rhumerus -38.745 -13.4165 -77.5211
rradius 33.5417
rwrist 6.52816
rhand -13.0596 7.90744
rfingers 7.12502
rthumb 13.0357 -21.6652
lclavicle 4.44781e-014 -8.74653e-015
lhumerus -33.191 4.00631 79.9777
lradius 43.361
lwrist -4.10446
lhand -16.997 25.4836
lfingers 7.12502
lthumb 9.23826 55.2612
rfemur -31.1035 0.380048 12.9485
rtibia 26.1878
rfoot -10.679 -0.813757
rtoes 2.69959
lfemur 15.1558 -4.41491 -34.2837
ltibia 5.24792e-014
lfoot -5.19808 -4.83079
ltoes 3.92046
124
root 6.80808 17.7909 -3.16187 -8.50923 -46.2441 11.6311
lowerback 11.2261 -0.733477 -8.0236
upperback 1.15164 -2.02045 -0.44131
thorax -4.83187 -0.855809 4.36191
lowerneck -21.7623 -3.8581 -10.3905
upperneck 25.6845 -4.1826 7.52462
head 12.534 -1.93716 3.91299
rclavicle 1.1778e-014 4.77083e-015
rhumerus -38.6823 -13.7953 -77.4097
rradius 33.125
rwrist 7.13569
rhand -12.8786 8.08468
rfingers 7.12502
rthumb 13.2102 -21.4768
lclavicle 1.1778e-014 4.77083e-015
lhumerus -33.0864 4.25183 79.8635
lradius 43.3284
lwrist -4.29721
lhand -17.0311 25.1796
lfingers 7.12502
lthumb 9.20538 54.9587
rfemur -30.8986 0.794177 12.8412
rtibia 24.8623
rfoot -11.1446 -0.909848
rtoes 1.79514
lfemur 15.6407 -4.51374 -34.2528
ltibia 7.95139e-015
lfoot -5.19817 -4.83665
ltoes 3.43251
